<?xml version="1.0" encoding="utf-8"?>
<!-- Generator: Adobe Illustrator 27.2.0, SVG Export Plug-In . SVG Version: 6.00 Build 0)  -->
<svg version="1.1" id="Layer_1" xmlns="http://www.w3.org/2000/svg" xmlns:xlink="http://www.w3.org/1999/xlink" x="0px" y="0px"
	 viewBox="0 0 128 128" style="enable-background:new 0 0 128 128;" xml:space="preserve">
<style type="text/css">
	.st0{fill:#FFFFFF;}
	.st1{fill:#F5D13B;}
	.st2{fill:#F4D13B;}
	.st3{fill:#39D1F3;}
	.st4{fill:#37C8CB;}
	.st5{fill:#37C8CC;}
	.st6{fill:#33E365;}
	.st7{fill:#31DA3E;}
	.st8{fill:#31DA3F;}
	.st9{fill:#0BDA63;}
	.st10{fill:#0BD85B;}
</style>
<g>
	<path class="st0" d="M35.9,104l-5,24h10.4l4.8-22.9C42.7,105,39.2,104.6,35.9,104"/>
	<path class="st1" d="M50,85.8l-4,19.2c0.6,0,1.3,0,1.9,0c1.7,0,3.3-0.1,4.8-0.3c3.2-0.4,6.3-0.5,9.5-0.5c4.2,0,8.4,0.2,12.4,0.5
		c4,0.2,7.9,0.5,11.5,0.5c6.1,0,11.5-0.7,15.5-3.2c4-2.5,7.2-7.2,9.4-12.3c-1.1,0.1-2.3,0.1-3.6,0.1c-4.9,0-11.1-0.5-18.4-1l1.1,3.6
		c-2.4,2.1-5.6,3-9.3,3c-6.3,0-10-2.8-11.1-7.9C62.9,87.1,56.3,86.5,50,85.8 M8.3,78.7c-1.2,7-0.3,13.8,2.8,16.7
		c2.6,2.4,13.4,6.6,24.8,8.6l4-19.4C26.3,82.8,15,80.6,8.3,78.7"/>
	<path class="st2" d="M69.6,87.6c1.1,5.1,4.8,7.9,11.1,7.9c3.7,0,6.9-1,9.3-3l-1.1-3.6c-4.3-0.3-9.1-0.7-14.2-1
		C73,87.8,71.3,87.7,69.6,87.6 M39.9,84.6l-4,19.4c3.4,0.6,6.8,1,10.1,1.1l4-19.2C46.5,85.5,43.2,85,39.9,84.6"/>
	<path class="st1" d="M74.6,19c-3.6,0-6.3,1-8.5,3.2c4.7,0.7,9.7,1.4,15,1.9c0-0.2,0.1-0.4,0.1-0.4C81.2,19.7,79.4,19,74.6,19
		 M84.2,0c-0.4,0-0.8,0-1.3,0C65,1.2,57.5,2.4,50.1,6.4c-5.2,2.8-9.1,8.1-11.8,14c2-0.4,4.1-0.6,6.4-0.6c3.1,0,6.6,0.3,10.3,0.8
		c4.3-8.2,10.7-11.5,20.1-11.5c11,0,16.4,4.5,16.4,13.3c0,0.5-0.1,1.3-0.3,2.5c14.8,0.7,23.2-0.3,25.8,2.8c0.2,0.2,0.3,0.4,0.5,0.6
		c0.1-5-1-9.6-3.6-12.4C111.1,12.6,97.4,0,84.2,0"/>
	<path class="st2" d="M75.1,9.1c-9.4,0-15.8,3.4-20.1,11.5c3.5,0.4,7.2,1,11.1,1.6c2.2-2.2,4.9-3.2,8.5-3.2c4.7,0,6.5,0.7,6.5,4.7
		c0,0.1,0,0.2-0.1,0.4c0.8,0.1,1.6,0.1,2.3,0.2c2.8,0.2,5.4,0.4,7.8,0.5c0.2-1.2,0.3-2,0.3-2.5C91.5,13.6,86.1,9.1,75.1,9.1"/>
	<path class="st3" d="M117.5,28.2c-0.1,5.8-1.7,12.2-4.5,16.9c3.2,0,5.6,0.1,7.2,0.7C121.6,39.7,121.4,33.2,117.5,28.2 M38.3,20.4
		c-2.2,0.4-4.1,1.1-5.8,2.2c-5.8,3.7-9.9,9.7-12.6,15.8c1.3-0.1,2.6-0.2,4.1-0.2c2.8,0,6,0.2,9.6,0.5C33.9,33.5,35.4,26.6,38.3,20.4
		"/>
	<path class="st4" d="M91.3,24.8c-0.5,3.5-1.8,10.1-3.8,19.9c6.2,0.4,11.3,0.4,15.6,0.4c1.9,0,3.7,0,5.2,0c1.6,0,3,0,4.3,0
		c0.1,0,0.3,0,0.4,0c2.7-4.7,4.4-11.1,4.5-16.9c-0.2-0.2-0.3-0.4-0.5-0.6C114.4,24.6,106.1,25.5,91.3,24.8 M66.1,22.2
		c-2.6,2.6-4.3,7-5.6,13.3L59.2,42c5.7,0.7,11.7,1.4,18,2c2.4-11.5,3.7-18.1,4-19.8C75.9,23.6,70.9,22.9,66.1,22.2 M44.7,19.9
		c-2.3,0-4.5,0.2-6.4,0.6c-2.9,6.2-4.4,13.1-4.8,18.4c4.7,0.4,9.9,1.1,15.6,1.8l1.3-6.1c1.2-5.7,2.7-10.3,4.6-13.9
		C51.3,20.2,47.9,19.9,44.7,19.9"/>
	<path class="st5" d="M81.1,24.1c-0.3,1.7-1.6,8.4-4,19.8c1.9,0.2,3.7,0.3,5.6,0.5c1.6,0.1,3.2,0.2,4.7,0.3c2-9.8,3.3-16.4,3.8-19.9
		c-2.4-0.1-5-0.3-7.8-0.5C82.7,24.3,81.9,24.2,81.1,24.1 M55,20.6c-1.9,3.6-3.4,8.2-4.6,13.9l-1.3,6.1c3.2,0.4,6.6,0.9,10.1,1.3
		l1.3-6.4c1.3-6.4,3-10.7,5.6-13.3C62.2,21.6,58.5,21.1,55,20.6"/>
	<path class="st6" d="M120.3,45.8c-1.7,7.4-5.8,14.2-8.9,16.6c-0.7,0.6-2.7,1.2-5.6,1.8c3.1,1.5,5.4,3.3,6.6,5
		c2.7,3.8,1.9,12.8-1.4,20.6c3-0.2,5.3-0.7,7-1.6c9.6-5.1,14.8-31.3,4.3-41.3C121.7,46.4,121,46.1,120.3,45.8 M19.8,38.5
		c-2.5,0.2-4.5,0.7-6.1,1.5C-1.8,47.5-1.6,70,2,75.9c0.5,0.8,2.7,1.7,6.3,2.8c1.2-7.1,4.7-14.5,10.4-18.1c-1.2-0.6-2-1.2-2.5-1.8
		C14.9,57.2,15.7,47.8,19.8,38.5"/>
	<path class="st7" d="M54,67L50,85.8c6.3,0.7,12.9,1.3,19.5,1.8c-0.2-1.1-0.4-2.3-0.4-3.6c0-1.8,0.2-3.7,0.7-5.8
		c0.8-3.8,1.6-7.4,2.3-10.8c-1.5,0-2.9,0-4.3,0c-1.5,0-2.9,0-4.4-0.1C60.3,67.4,57.1,67.2,54,67 M105.7,64.2
		c-5.4,1.1-14,2.2-23.1,2.8c-0.8,3.6-1.7,8.2-2.6,12.2c-0.4,1.8-0.6,3-0.6,3.9c0,1.8,1.1,2.6,2.8,2.6c1.5,0,3.4-0.6,5.2-1.7l1.5,5
		c7.3,0.5,13.5,1,18.4,1c1.3,0,2.5,0,3.6-0.1c3.3-7.9,4.1-16.8,1.4-20.6C111.1,67.5,108.9,65.7,105.7,64.2 M18.7,60.6
		c-5.7,3.7-9.2,11-10.4,18.1c6.7,1.9,18,4.1,31.6,5.9l3.9-18.5C32.3,64.8,23.2,62.8,18.7,60.6"/>
	<path class="st8" d="M82.7,67c-3.5,0.2-7,0.4-10.4,0.5c-0.7,3.4-1.5,7-2.3,10.8c-0.5,2.1-0.7,4-0.7,5.8c0,1.3,0.1,2.5,0.4,3.6
		c1.7,0.1,3.4,0.2,5.1,0.3c5.1,0.3,9.9,0.6,14.2,1l-1.5-5c-1.8,1.1-3.7,1.7-5.2,1.7c-1.6,0-2.8-0.8-2.8-2.6c0-0.8,0.2-2.1,0.6-3.9
		C81,75.2,81.9,70.6,82.7,67 M43.8,66.1l-3.9,18.5c3.3,0.4,6.6,0.9,10.1,1.2L54,67C50.4,66.8,47,66.5,43.8,66.1"/>
	<path class="st9" d="M69.7,48.1l-1.5,7.1H56.4l-1.5,7.1c0.4,0,0.8,0,1.1,0c5.1,0,10.5-0.4,16.2-1.4c0.4-0.1,0.9-0.2,1.3-0.2
		c0.9-4.4,1.8-8.5,2.5-12.1c-1.3-0.2-2.4-0.3-3.4-0.4C71.7,48.2,70.7,48.1,69.7,48.1 M113.1,45.1c-1.6,2.8-3.6,5-5.9,6.3
		c-0.7,0.4-2.1,0.6-3.9,0.6c-4.2,0-10.6-0.9-16.9-1.9c-0.4,1.8-0.8,3.7-1.2,5.7l-0.9,4.1c0,0,0.1,0,0.1,0c8.9,0,16.3,1.8,21.4,4.3
		c2.9-0.6,4.9-1.2,5.6-1.8c3.2-2.5,7.3-9.2,8.9-16.6C118.6,45.3,116.3,45.1,113.1,45.1 M23.9,38.3c-1.5,0-2.8,0.1-4.1,0.2
		c-4.1,9.3-4.9,18.7-3.6,20.3c0.5,0.6,1.4,1.2,2.5,1.8c0.2-0.1,0.3-0.2,0.5-0.3c1-0.6,2.5-0.8,4.3-0.8c3.3,0,7.9,0.7,13.4,1.5
		c2.4,0.3,5,0.6,7.7,0.9l1.4-6.6h-4.8l1.3-6.4c-4.2,0-7.3-0.5-8.1-1.9c-0.9-1.4-1.2-4.3-0.9-8C30,38.5,26.8,38.3,23.9,38.3"/>
	<path class="st9" d="M76.2,48.6c-0.8,3.6-1.6,7.7-2.5,12.1c3.7-0.6,7.3-0.9,10.6-0.9l0.9-4.1c0.4-2,0.8-3.9,1.2-5.7
		C82.7,49.6,79.2,49,76.2,48.6 M65.2,48c-4,0-8.1,0.2-11.9,0.4c-3.8,0.2-7.3,0.4-10.3,0.4c-0.2,0-0.3,0-0.5,0l-1.3,6.4h4.8l-1.4,6.6
		c3.2,0.3,6.6,0.5,10.3,0.6l1.5-7.1h11.8l1.5-7.1C68.2,48,66.7,48,65.2,48"/>
	<path class="st10" d="M73.6,60.7c-0.4,0.1-0.9,0.1-1.3,0.2c-5.7,1-11.1,1.4-16.2,1.4c-0.4,0-0.8,0-1.1,0L54,67
		c3.1,0.2,6.3,0.4,9.6,0.4c1.4,0,2.9,0.1,4.4,0.1c1.4,0,2.9,0,4.3,0C72.7,65.1,73.2,62.9,73.6,60.7 M84.3,59.9
		C84.3,59.9,84.3,59.9,84.3,59.9l-0.8,2.9c-0.3,1.1-0.6,2.5-0.9,4.2c9.1-0.6,17.6-1.7,23.1-2.8C100.6,61.7,93.2,59.9,84.3,59.9
		 M23.5,59.4c-1.9,0-3.3,0.2-4.3,0.8c-0.2,0.1-0.3,0.2-0.5,0.3c4.5,2.2,13.6,4.3,25.1,5.5l0.9-4.3c-2.7-0.3-5.3-0.6-7.7-0.9
		C31.4,60.2,26.8,59.4,23.5,59.4"/>
	<path class="st10" d="M44.7,61.8l-0.9,4.3C47,66.5,50.4,66.8,54,67l1-4.7C51.3,62.3,47.9,62.1,44.7,61.8 M84.2,59.9
		c-3.3,0-6.9,0.3-10.6,0.9c-0.5,2.1-0.9,4.4-1.4,6.7c3.5-0.1,7-0.2,10.4-0.5c0.3-1.6,0.7-3.1,0.9-4.2L84.2,59.9"/>
	<path class="st10" d="M87.5,44.7c-0.3,1.7-0.7,3.5-1.1,5.4C92.6,51,99.1,52,103.3,52c1.8,0,3.1-0.2,3.9-0.6
		c2.3-1.2,4.3-3.5,5.9-6.3c-0.1,0-0.3,0-0.4,0c-1.3,0-2.7,0-4.3,0c-1.6,0-3.3,0-5.2,0C98.8,45.2,93.6,45.1,87.5,44.7 M59.2,42
		l-0.7,3.3h11.8l-0.6,2.8c1,0,2,0.1,3,0.2c1,0.1,2.2,0.2,3.4,0.4c0.3-1.6,0.7-3.2,1-4.7C70.9,43.4,64.9,42.7,59.2,42 M33.5,38.8
		c-0.3,3.7,0.1,6.6,0.9,8c0.9,1.4,3.9,1.9,8.1,1.9l0.7-3.4h4.8l1-4.6C43.4,39.9,38.2,39.3,33.5,38.8"/>
	<path class="st10" d="M77.1,44c-0.3,1.5-0.6,3-1,4.7c3,0.4,6.6,0.9,10.2,1.5c0.4-1.9,0.8-3.7,1.1-5.4c-1.5-0.1-3-0.2-4.7-0.3
		C80.9,44.3,79,44.1,77.1,44 M49.1,40.7l-1,4.6h-4.8l-0.7,3.4c0.2,0,0.3,0,0.5,0c3,0,6.5-0.2,10.3-0.4c3.8-0.2,7.8-0.4,11.9-0.4
		c1.5,0,3,0,4.5,0.1l0.6-2.8H58.5l0.7-3.3C55.7,41.5,52.3,41.1,49.1,40.7"/>
	<path class="st0" d="M90,92.5c-2.4,2.1-5.6,3-9.3,3c-7.6,0-11.5-4.1-11.5-11.5c0-1.8,0.2-3.7,0.7-5.8c7.5-35.4,11.2-53.6,11.2-54.5
		c0-4-1.8-4.7-6.5-4.7c-7.8,0-11.7,4.8-14.1,16.5l-2.1,9.8h11.8l-2.1,9.9H56.4L41.2,128H30.8l15.2-72.8h-4.8l2.1-9.9h4.8l2.3-10.7
		C54.3,16.1,61.6,9.1,75.1,9.1c11,0,16.4,4.5,16.4,13.3c0,2.3-2.2,13.4-6.4,33.4l-1.6,7c-0.8,3.5-2.2,10.6-3.5,16.4
		c-0.4,1.8-0.6,3-0.6,3.9c0,3.4,4.1,3.1,8,0.8L90,92.5z"/>
</g>
</svg>
