<?xml version="1.0" encoding="utf-8"?>
<!-- Generator: Adobe Illustrator 27.2.0, SVG Export Plug-In . SVG Version: 6.00 Build 0)  -->
<svg version="1.1" id="Layer_1" xmlns="http://www.w3.org/2000/svg" xmlns:xlink="http://www.w3.org/1999/xlink" x="0px" y="0px"
	 viewBox="0 0 198.4 56.3" style="enable-background:new 0 0 198.4 56.3;" xml:space="preserve">
<style type="text/css">
	.fl-logo-dark-st0{fill:#FFFFFF;}
	.fl-logo-dark-st1{opacity:0.8;fill:#07C6F0;enable-background:new    ;}
	.fl-logo-dark-st2{opacity:0.8;fill:#00DC3F;enable-background:new    ;}
	.fl-logo-dark-st3{opacity:0.8;fill:#F2C50A;enable-background:new    ;}
</style>
<g>
	<path class="fl-logo-dark-st0" d="M64.8,35.5c-0.7,0.6-1.7,0.9-2.8,0.9c-2.3,0-3.5-1.2-3.5-3.5c0-0.5,0.1-1.1,0.2-1.8
		c2.3-10.7,3.4-16.3,3.4-16.6c0-1.2-0.5-1.4-2-1.4c-2.4,0-3.6,1.5-4.3,5l-0.6,3h3.6l-0.6,3h-3.6L50,46.3h-3.2l4.6-22.2h-1.5l0.6-3
		H52l0.7-3.3c1.2-5.6,3.4-7.8,7.5-7.8c3.3,0,5,1.4,5,4c0,0.7-0.7,4.1-2,10.2l-0.4,2.2c-0.3,1.1-0.7,3.2-1.1,5
		c-0.1,0.5-0.2,0.9-0.2,1.2c0,1,1.2,1,2.4,0.3L64.8,35.5z"/>
	<path class="fl-logo-dark-st0" d="M81,33.4l-0.7,3c-1.7,0-2.8-0.5-3.2-1.5c-1.4,1-2.9,1.4-4.5,1.4c-3.3,0-5-1.7-5-4.9c0-0.6,0-1.5,0.2-2.3
		l0.6-2.8l0.4-2.3l0.6-2.9h3.2c-1.2,5.9-1.8,9.3-1.8,10.2c0,1.4,0.5,2.1,1.9,2.1c1.5,0,3-0.4,4.3-1.1l2.3-11.1h3.2
		c-1.5,7.2-2.3,11-2.3,11.3C80.1,33.1,80.4,33.4,81,33.4z"/>
	<path class="fl-logo-dark-st0" d="M83.9,30.4c0-2.6,0.8-4.9,2.5-6.8s3.7-2.9,6.1-2.9c3.6,0,5.8,2.4,5.8,5.9c0,2.6-0.8,4.9-2.5,6.9
		c-1.7,2-3.7,3-6.1,3C86,36.4,83.9,33.9,83.9,30.4z M93.7,31.3c1-1.4,1.5-2.9,1.5-4.7c0-1.9-1-3-2.8-3c-1.6,0-2.9,0.7-3.9,2.1
		S87,28.6,87,30.3c0,2.1,0.9,3.1,2.8,3.1C91.4,33.4,92.7,32.7,93.7,31.3z"/>
	<path class="fl-logo-dark-st0" d="M111.9,21l-1.4,2.8c-0.3-0.1-0.7-0.1-1.4-0.1c-1.4,0-2.7,0.3-3.9,1l-2.3,11.2h-3.2l3.1-14.7h2.6v0.5
		c1.2-0.7,2.5-1,3.8-1C110.3,20.6,111.2,20.8,111.9,21z"/>
	<path class="fl-logo-dark-st0" d="M114.1,29.1c-0.1,0.5-0.1,1-0.1,1.4c0,1.9,0.9,2.9,2.7,2.9c2.2,0,3.6-1.1,3.9-2.7l3.1,0.3
		c-0.8,3.6-3.2,5.4-7.1,5.4c-3.7,0-5.7-2.3-5.7-5.9c0-2.7,0.8-5,2.4-6.9c1.6-2,3.7-2.9,6.2-2.9c3.5,0,5.2,2.2,5.2,5.3
		c0,0.9-0.1,1.9-0.4,3.2C124.2,29.1,114.1,29.1,114.1,29.1z M114.9,26.5h6.6c0.1-0.4,0.1-0.7,0.1-1c0-1.2-0.8-1.8-2.3-1.8
		C117.3,23.7,115.9,24.6,114.9,26.5z"/>
	<path class="fl-logo-dark-st0" d="M128,35.2c-1.1-0.8-1.6-2-1.6-3.4c0-0.4,0.1-0.9,0.2-1.5l2.9,0.3c0,0.2-0.1,0.4-0.1,0.8c0,1.4,0.9,2,2.8,2
		c1.5,0,2.8-0.7,2.8-2.1c0-1.9-6.9-1.4-6.9-6c0-3,2.3-4.7,5.6-4.7c2.6,0,4.7,1.8,4.7,4.3c0,0.4,0,0.8-0.1,1.2l-3.1-0.3
		c0-0.2,0.1-0.4,0.1-0.7c0-1-0.6-1.5-1.9-1.5c-1.5,0-2.2,0.5-2.2,1.7c0,1.1,1.7,1.8,3.4,2.2c1.8,0.4,3.5,1.6,3.5,3.6
		c0,1.7-0.6,3-1.8,3.9c-1.2,0.8-2.6,1.3-4.3,1.3C130.5,36.4,129.1,36,128,35.2z"/>
	<path class="fl-logo-dark-st0" d="M140.7,30.5c0-2.7,0.8-5,2.4-7c1.6-2,3.7-2.9,6.2-2.9c3.4,0,5.4,1.8,5.4,4.6c0,0.4,0,0.9-0.1,1.4l-3.1-0.3
		c0-0.4,0.1-0.7,0.1-0.8c0-1.2-0.8-1.9-2.3-1.9c-1.6,0-2.9,0.7-3.9,2.1s-1.5,2.9-1.5,4.7c0,2,0.9,3,2.7,3c2,0,3.6-1.4,4-2.9l3.1,0.3
		c-0.7,3.3-3.2,5.6-7.2,5.6C142.7,36.4,140.7,34.1,140.7,30.5z"/>
	<path class="fl-logo-dark-st0" d="M159.4,29.1c-0.1,0.5-0.1,1-0.1,1.4c0,1.9,0.9,2.9,2.6,2.9c2.2,0,3.6-1.1,3.9-2.7l3.1,0.3
		c-0.8,3.6-3.2,5.4-7.1,5.4c-3.7,0-5.7-2.3-5.7-5.9c0-2.7,0.8-5,2.4-6.9c1.6-2,3.7-2.9,6.2-2.9c3.5,0,5.1,2.2,5.1,5.3
		c0,0.9-0.1,1.9-0.4,3.2C169.6,29.1,159.4,29.1,159.4,29.1z M160.2,26.5h6.6c0.1-0.4,0.1-0.7,0.1-1c0-1.2-0.8-1.8-2.4-1.8
		C162.6,23.7,161.2,24.6,160.2,26.5z"/>
	<path class="fl-logo-dark-st0" d="M186,33.4l-0.6,3c-2.2,0-3.5-1.4-3.5-3.8c0-0.5,0.2-1.7,0.6-3.5c0.4-1.8,0.6-3,0.6-3.6c0-1.3-0.6-1.8-2.1-1.8
		c-1.4,0-2.9,0.4-4.3,1.1l-2.3,11h-3.2l3.1-14.7h2.6v0.8c1.5-0.9,2.9-1.2,4.1-1.2c3.4,0,5.1,1.6,5.1,4.9c0,0.7-0.2,2-0.6,3.7
		c-0.4,1.7-0.6,2.8-0.6,3.2C185.1,33.1,185.4,33.4,186,33.4z"/>
	<path class="fl-logo-dark-st0" d="M197.6,24.1h-2.9c-1.1,5.4-1.7,8.3-1.7,8.5c0,1,1.2,1,2.4,0.3l0.8,2.6c-0.7,0.6-1.7,0.9-2.8,0.9
		c-2.3,0-3.5-1.2-3.5-3.5c0-0.5,0.6-3.5,1.7-8.8H190l0.6-3h1.7l0.6-3.1l0.7-3.4h3.2c-0.1,0.6-0.3,1.7-0.7,3.2l-0.7,3.2h2.9
		L197.6,24.1z"/>
</g>
<g>
	<path class="fl-logo-dark-st1" d="M18.8,7.6c-0.1-1.7-3-5-3.9-4.7c-0.2,0.1-2.3,5-3.1,6.6s-2.6,7.9-2.8,10c-0.3,3.6-3.8,10.7-4.5,13.9
		c-0.6,2.9-0.7,4.9-0.6,5.5c0.3,1.6,3.2,5.9,3.9,5.2c0.5-0.5,0.7-5,1.5-8.5c0.9-4,3.7-8.5,4.5-13.3c0.4-2.1,2.1-7.9,2.6-9.4
		C17.1,10.8,18.9,7.8,18.8,7.6z"/>
	<path class="fl-logo-dark-st2" d="M27.2,8.1c0-1.1-2.5-5.3-3.3-5.1c-0.7,0.1-5.4,11.2-6.2,13.4c-0.8,2-1.8,8.1-2.8,11.1
		c-0.8,2.5-2.7,6.3-3.3,8.4c-0.8,2.7-1.3,7.8-1.9,12.1c-0.3,2-0.9,3.3-0.9,3.4c0.3,1.5,2.7,4.3,3.5,4.5c0.2,0,1.9-1.7,2.6-5.3
		c0.9-5.1,1.4-9.2,2.4-12.8c0.7-2.7,2.3-5.7,3.1-8c1.1-3,2.4-9.8,2.8-11.3C23.6,16.9,27.2,8.7,27.2,8.1z"/>
	<path class="fl-logo-dark-st1" d="M34.7,10c-0.1-1.7-3-5-3.9-4.7c-0.2,0.1-4,9.8-4.7,11.4c-0.8,1.6-2.6,7.9-2.8,10c-0.4,3.5-2.8,8.6-3.6,11.6
		c-0.9,3.1-1.6,7.4-1.5,8.1c0.3,1.6,3.1,5.7,3.9,5c0.5-0.5,1.4-6.6,2.5-10.1c1.2-3.9,2.7-7,3.5-11.8c0.4-2.1,2.1-7.9,2.6-9.4
		C31.3,18,34.7,10.2,34.7,10z"/>
	<path class="fl-logo-dark-st3" d="M5.8,18.8c-3.5,2.1-4.3,8.9-2.4,10.6c1.2,1.1,8,3.4,12.7,2.9c5.7-0.6,11.7,1.2,14.9-0.8
		c3.1-1.9,4.6-8.1,3.3-10.1c-1.2-1.7-6-3.6-12.2-2.5C14.1,20.4,7.6,17.7,5.8,18.8z"/>
	<path class="fl-logo-dark-st3" d="M15.3,2.3c-4.4,2.3-5.8,10.6-4.8,12.3c0.8,1.2,6.8,0.1,11.7,0.4c2.9,0.2,9.3,1.6,10.5,0.9
		C35.6,14.3,37,7.5,34.8,5c-0.9-1-5.3-5-9.4-4.8C19.8,0.8,17.5,1.1,15.3,2.3z"/>
	<path class="fl-logo-dark-st1" d="M9.9,7.3c-4.5,2.8-5.6,10.2-5,11c1.1,1.3,7.1,2.4,14.4,2.6c5.8,0.2,13.6-0.8,14.6-1.5
		c1.8-1.4,4.6-7.3,1.7-10.6c-0.9-1.1-4.2-0.5-10.2-1C18.6,7.2,12.9,5.4,9.9,7.3z"/>
	<path class="fl-logo-dark-st2" d="M4.2,12.5c-4.7,2.3-4.7,9.2-3.6,11c0.6,1,11.2,3,22.1,3.7c6.8,0.4,11.3,1.1,13.2,0.1c2.9-1.5,4.5-9.5,1.3-12.6
		c-1.1-1.1-4.1-0.2-12-0.8C15.5,13.2,7.1,11.1,4.2,12.5z"/>
</g>
</svg>
